{
	"asset":{
		"generator":"Khronos glTF Blender I/O v4.3.47",
		"version":"2.0"
	},
	"scene":0,
	"scenes":[
		{
			"name":"Scene",
			"nodes":[
				3
			]
		}
	],
	"nodes":[
		{
			"mesh":0,
			"name":"ink"
		},
		{
			"mesh":1,
			"name":"stone"
		},
		{
			"mesh":2,
			"name":"tar"
		},
		{
			"children":[
				0,
				1,
				2
			],
			"name":"Node_0",
			"rotation":[
				-0.70710688829422,
				0,
				0,
				0.7071066498756409
			]
		}
	],
	"materials":[
		{
			"name":"tinta.010",
			"pbrMetallicRoughness":{
				"baseColorTexture":{
					"index":0
				},
				"metallicFactor":0.20000000298023224,
				"roughnessFactor":0
			}
		},
		{
			"name":"pedra.010",
			"pbrMetallicRoughness":{
				"baseColorFactor":[
					0.4019778072834015,
					0.39675524830818176,
					0.39675524830818176,
					1
				],
				"baseColorTexture":{
					"index":1
				},
				"metallicFactor":0.20000000298023224,
				"roughnessFactor":0.5
			}
		},
		{
			"name":"Alcatrao.010",
			"pbrMetallicRoughness":{
				"baseColorFactor":[
					0,
					0,
					0,
					1
				],
				"baseColorTexture":{
					"index":2
				},
				"metallicFactor":0.10000000149011612,
				"roughnessFactor":0.5
			}
		}
	],
	"meshes":[
		{
			"name":"Mesh_1.010",
			"primitives":[
				{
					"attributes":{
						"POSITION":0,
						"NORMAL":1,
						"TEXCOORD_0":2
					},
					"indices":3,
					"material":0
				}
			]
		},
		{
			"name":"Mesh_2.010",
			"primitives":[
				{
					"attributes":{
						"POSITION":4,
						"NORMAL":5,
						"TEXCOORD_0":6
					},
					"indices":7,
					"material":1
				}
			]
		},
		{
			"name":"Mesh_0.010",
			"primitives":[
				{
					"attributes":{
						"POSITION":8,
						"NORMAL":9,
						"TEXCOORD_0":10
					},
					"indices":11,
					"material":2
				}
			]
		}
	],
	"textures":[
		{
			"sampler":0,
			"source":0
		},
		{
			"sampler":0,
			"source":0
		},
		{
			"sampler":0,
			"source":0
		}
	],
	"images":[
		{
			"mimeType":"image/png",
			"name":"Image_0",
			"uri":"Image_0.png"
		}
	],
	"accessors":[
		{
			"bufferView":0,
			"componentType":5126,
			"count":3504,
			"max":[
				24,
				24,
				1
			],
			"min":[
				-25,
				-25,
				0
			],
			"type":"VEC3"
		},
		{
			"bufferView":1,
			"componentType":5126,
			"count":3504,
			"type":"VEC3"
		},
		{
			"bufferView":2,
			"componentType":5126,
			"count":3504,
			"type":"VEC2"
		},
		{
			"bufferView":3,
			"componentType":5123,
			"count":10464,
			"type":"SCALAR"
		},
		{
			"bufferView":4,
			"componentType":5126,
			"count":848,
			"max":[
				24,
				24,
				2
			],
			"min":[
				-25,
				-25,
				0
			],
			"type":"VEC3"
		},
		{
			"bufferView":5,
			"componentType":5126,
			"count":848,
			"type":"VEC3"
		},
		{
			"bufferView":6,
			"componentType":5126,
			"count":848,
			"type":"VEC2"
		},
		{
			"bufferView":7,
			"componentType":5123,
			"count":2640,
			"type":"SCALAR"
		},
		{
			"bufferView":8,
			"componentType":5126,
			"count":3114,
			"max":[
				24,
				24,
				1
			],
			"min":[
				-25,
				-25,
				0
			],
			"type":"VEC3"
		},
		{
			"bufferView":9,
			"componentType":5126,
			"count":3114,
			"type":"VEC3"
		},
		{
			"bufferView":10,
			"componentType":5126,
			"count":3114,
			"type":"VEC2"
		},
		{
			"bufferView":11,
			"componentType":5123,
			"count":8784,
			"type":"SCALAR"
		}
	],
	"bufferViews":[
		{
			"buffer":0,
			"byteLength":42048,
			"byteOffset":0,
			"target":34962
		},
		{
			"buffer":0,
			"byteLength":42048,
			"byteOffset":42048,
			"target":34962
		},
		{
			"buffer":0,
			"byteLength":28032,
			"byteOffset":84096,
			"target":34962
		},
		{
			"buffer":0,
			"byteLength":20928,
			"byteOffset":112128,
			"target":34963
		},
		{
			"buffer":0,
			"byteLength":10176,
			"byteOffset":133056,
			"target":34962
		},
		{
			"buffer":0,
			"byteLength":10176,
			"byteOffset":143232,
			"target":34962
		},
		{
			"buffer":0,
			"byteLength":6784,
			"byteOffset":153408,
			"target":34962
		},
		{
			"buffer":0,
			"byteLength":5280,
			"byteOffset":160192,
			"target":34963
		},
		{
			"buffer":0,
			"byteLength":37368,
			"byteOffset":165472,
			"target":34962
		},
		{
			"buffer":0,
			"byteLength":37368,
			"byteOffset":202840,
			"target":34962
		},
		{
			"buffer":0,
			"byteLength":24912,
			"byteOffset":240208,
			"target":34962
		},
		{
			"buffer":0,
			"byteLength":17568,
			"byteOffset":265120,
			"target":34963
		}
	],
	"samplers":[
		{
			"magFilter":9729,
			"minFilter":9987
		}
	],
	"buffers":[
		{
			"byteLength":282688,
			"uri":"road_I_49.bin"
		}
	]
}
