{
	"asset":{
		"generator":"Khronos glTF Blender I/O v4.3.47",
		"version":"2.0"
	},
	"scene":0,
	"scenes":[
		{
			"name":"Scene",
			"nodes":[
				3
			]
		}
	],
	"nodes":[
		{
			"mesh":0,
			"name":"ink"
		},
		{
			"mesh":1,
			"name":"stone"
		},
		{
			"mesh":2,
			"name":"tar"
		},
		{
			"children":[
				0,
				1,
				2
			],
			"name":"Node_0",
			"rotation":[
				-0.70710688829422,
				0,
				0,
				0.7071066498756409
			]
		}
	],
	"materials":[
		{
			"name":"tinta.003",
			"pbrMetallicRoughness":{
				"baseColorTexture":{
					"index":0
				},
				"metallicFactor":0.20000000298023224,
				"roughnessFactor":0
			}
		},
		{
			"name":"pedra.003",
			"pbrMetallicRoughness":{
				"baseColorFactor":[
					0.4019778072834015,
					0.39675524830818176,
					0.39675524830818176,
					1
				],
				"baseColorTexture":{
					"index":1
				},
				"metallicFactor":0.20000000298023224,
				"roughnessFactor":0.5
			}
		},
		{
			"name":"Alcatrao.003",
			"pbrMetallicRoughness":{
				"baseColorFactor":[
					0,
					0,
					0,
					1
				],
				"baseColorTexture":{
					"index":2
				},
				"metallicFactor":0.10000000149011612,
				"roughnessFactor":0.5
			}
		}
	],
	"meshes":[
		{
			"name":"Mesh_1.003",
			"primitives":[
				{
					"attributes":{
						"POSITION":0,
						"NORMAL":1,
						"TEXCOORD_0":2
					},
					"indices":3,
					"material":0
				}
			]
		},
		{
			"name":"Mesh_2.003",
			"primitives":[
				{
					"attributes":{
						"POSITION":4,
						"NORMAL":5,
						"TEXCOORD_0":6
					},
					"indices":7,
					"material":1
				}
			]
		},
		{
			"name":"Mesh_0.003",
			"primitives":[
				{
					"attributes":{
						"POSITION":8,
						"NORMAL":9,
						"TEXCOORD_0":10
					},
					"indices":11,
					"material":2
				}
			]
		}
	],
	"textures":[
		{
			"sampler":0,
			"source":0
		},
		{
			"sampler":0,
			"source":0
		},
		{
			"sampler":0,
			"source":0
		}
	],
	"images":[
		{
			"mimeType":"image/png",
			"name":"Image_0",
			"uri":"Image_0.png"
		}
	],
	"accessors":[
		{
			"bufferView":0,
			"componentType":5126,
			"count":1294,
			"max":[
				13,
				24,
				1
			],
			"min":[
				-25,
				-14,
				0
			],
			"type":"VEC3"
		},
		{
			"bufferView":1,
			"componentType":5126,
			"count":1294,
			"type":"VEC3"
		},
		{
			"bufferView":2,
			"componentType":5126,
			"count":1294,
			"type":"VEC2"
		},
		{
			"bufferView":3,
			"componentType":5123,
			"count":2604,
			"type":"SCALAR"
		},
		{
			"bufferView":4,
			"componentType":5126,
			"count":1580,
			"max":[
				24,
				24,
				2
			],
			"min":[
				-25,
				-25,
				0
			],
			"type":"VEC3"
		},
		{
			"bufferView":5,
			"componentType":5126,
			"count":1580,
			"type":"VEC3"
		},
		{
			"bufferView":6,
			"componentType":5126,
			"count":1580,
			"type":"VEC2"
		},
		{
			"bufferView":7,
			"componentType":5123,
			"count":5424,
			"type":"SCALAR"
		},
		{
			"bufferView":8,
			"componentType":5126,
			"count":1009,
			"max":[
				12,
				24,
				1
			],
			"min":[
				-25,
				-13,
				0
			],
			"type":"VEC3"
		},
		{
			"bufferView":9,
			"componentType":5126,
			"count":1009,
			"type":"VEC3"
		},
		{
			"bufferView":10,
			"componentType":5126,
			"count":1009,
			"type":"VEC2"
		},
		{
			"bufferView":11,
			"componentType":5123,
			"count":3492,
			"type":"SCALAR"
		}
	],
	"bufferViews":[
		{
			"buffer":0,
			"byteLength":15528,
			"byteOffset":0,
			"target":34962
		},
		{
			"buffer":0,
			"byteLength":15528,
			"byteOffset":15528,
			"target":34962
		},
		{
			"buffer":0,
			"byteLength":10352,
			"byteOffset":31056,
			"target":34962
		},
		{
			"buffer":0,
			"byteLength":5208,
			"byteOffset":41408,
			"target":34963
		},
		{
			"buffer":0,
			"byteLength":18960,
			"byteOffset":46616,
			"target":34962
		},
		{
			"buffer":0,
			"byteLength":18960,
			"byteOffset":65576,
			"target":34962
		},
		{
			"buffer":0,
			"byteLength":12640,
			"byteOffset":84536,
			"target":34962
		},
		{
			"buffer":0,
			"byteLength":10848,
			"byteOffset":97176,
			"target":34963
		},
		{
			"buffer":0,
			"byteLength":12108,
			"byteOffset":108024,
			"target":34962
		},
		{
			"buffer":0,
			"byteLength":12108,
			"byteOffset":120132,
			"target":34962
		},
		{
			"buffer":0,
			"byteLength":8072,
			"byteOffset":132240,
			"target":34962
		},
		{
			"buffer":0,
			"byteLength":6984,
			"byteOffset":140312,
			"target":34963
		}
	],
	"samplers":[
		{
			"magFilter":9729,
			"minFilter":9987
		}
	],
	"buffers":[
		{
			"byteLength":147296,
			"uri":"road_TL_49.bin"
		}
	]
}
