{
  "accessors": [
    {
      "bufferView": 1,
      "componentType": 5126,
      "type": "VEC3",
      "count": 3096,
      "min": [-25, -13, 0],
      "max": [24, 12, 1]
    },
    {
      "bufferView": 1,
      "componentType": 5126,
      "type": "VEC3",
      "byteOffset": 12,
      "count": 3096
    },
    {
      "bufferView": 1,
      "componentType": 5126,
      "type": "VEC2",
      "byteOffset": 24,
      "count": 3096
    },
    {
      "bufferView": 2,
      "componentType": 5125,
      "type": "SCALAR",
      "count": 15660
    },
    {
      "bufferView": 3,
      "componentType": 5126,
      "type": "VEC3",
      "count": 1152,
      "min": [-25, -14, 0],
      "max": [24, 13, 1]
    },
    {
      "bufferView": 3,
      "componentType": 5126,
      "type": "VEC3",
      "byteOffset": 12,
      "count": 1152
    },
    {
      "bufferView": 3,
      "componentType": 5126,
      "type": "VEC2",
      "byteOffset": 24,
      "count": 1152
    },
    {
      "bufferView": 4,
      "componentType": 5125,
      "type": "SCALAR",
      "count": 3132
    },
    {
      "bufferView": 5,
      "componentType": 5126,
      "type": "VEC3",
      "count": 3144,
      "min": [-25, -25, 0],
      "max": [24, 24, 2]
    },
    {
      "bufferView": 5,
      "componentType": 5126,
      "type": "VEC3",
      "byteOffset": 12,
      "count": 3144
    },
    {
      "bufferView": 5,
      "componentType": 5126,
      "type": "VEC2",
      "byteOffset": 24,
      "count": 3144
    },
    {
      "bufferView": 6,
      "componentType": 5125,
      "type": "SCALAR",
      "count": 15816
    }
  ],
  "asset": {
    "generator": "goxel",
    "version": "2.0"
  },
  "bufferViews": [
    {
      "buffer": 0,
      "byteLength": 200
    },
    {
      "buffer": 1,
      "byteLength": 123840,
      "byteStride": 40
    },
    {
      "buffer": 2,
      "byteLength": 62640
    },
    {
      "buffer": 3,
      "byteLength": 46080,
      "byteStride": 40
    },
    {
      "buffer": 4,
      "byteLength": 12528
    },
    {
      "buffer": 5,
      "byteLength": 125760,
      "byteStride": 40
    },
    {
      "buffer": 6,
      "byteLength": 63264
    }
  ],
  "buffers": [
    {
      "uri": "data:application/octet-stream;base64,",
      "byteLength": 200
    },
    {
      "uri": "data:application/octet-stream;base64,",
      "byteLength": 123840
    },
    {
      "uri": "data:application/octet-stream;base64,",
      "byteLength": 62640
    },
    {
      "uri": "data:application/octet-stream;base64,",
      "byteLength": 46080
    },
    {
      "uri": "data:application/octet-stream;base64,",
      "byteLength": 12528
    },
    {
      "uri": "data:application/octet-stream;base64,",
      "byteLength": 125760
    },
    {
      "uri": "data:application/octet-stream;base64,",
      "byteLength": 63264
    }
  ],
  "images": [
    {
      "bufferView": 0,
      "mimeType": "image/png"
    }
  ],
  "meshes": [
    {
      "primitives": [
        {
          "indices": 3,
          "material": 0,
          "attributes": {
            "POSITION": 0,
            "NORMAL": 1,
            "TEXCOORD_0": 2
          }
        }
      ]
    },
    {
      "primitives": [
        {
          "indices": 7,
          "material": 1,
          "attributes": {
            "POSITION": 4,
            "NORMAL": 5,
            "TEXCOORD_0": 6
          }
        }
      ]
    },
    {
      "primitives": [
        {
          "indices": 11,
          "material": 2,
          "attributes": {
            "POSITION": 8,
            "NORMAL": 9,
            "TEXCOORD_0": 10
          }
        }
      ]
    }
  ],
  "materials": [
    {
      "name": "Alcatrao",
      "pbrMetallicRoughness": {
        "baseColorTexture": {
          "index": 0
        },
        "metallicFactor": 0.100000001,
        "roughnessFactor": 0.5,
        "baseColorFactor": [0, 0, 0, 1]
      }
    },
    {
      "name": "tinta",
      "pbrMetallicRoughness": {
        "baseColorTexture": {
          "index": 0
        },
        "metallicFactor": 0.200000003,
        "roughnessFactor": 0
      }
    },
    {
      "name": "pedra",
      "pbrMetallicRoughness": {
        "baseColorTexture": {
          "index": 0
        },
        "metallicFactor": 0.200000003,
        "roughnessFactor": 0.5,
        "baseColorFactor": [0.401977807, 0.396755248, 0.396755248, 1]
      }
    }
  ],
  "nodes": [
    {
      "children": [ 1, 2, 3 ],
      "matrix": [1, 0, 0, 0, 0, 0, -1, 0, 0, 1, 0, 0, 0, 0, 0, 1]
    },
    {
      "mesh": 0,
      "name": "tar"
    },
    {
      "mesh": 1,
      "name": "ink"
    },
    {
      "mesh": 2,
      "name": "stone"
    }
  ],
  "scenes": [
    {
      "nodes": [ 0 ]
    }
  ],
  "textures": [
    {
      "source": 0
    }
  ]
}
