{
  "accessors": [
    {
      "bufferView": 1,
      "componentType": 5126,
      "type": "VEC3",
      "count": 3206,
      "min": [-25, -13, 0],
      "max": [19, 24, 1]
    },
    {
      "bufferView": 1,
      "componentType": 5126,
      "type": "VEC3",
      "byteOffset": 12,
      "count": 3206
    },
    {
      "bufferView": 1,
      "componentType": 5126,
      "type": "VEC2",
      "byteOffset": 24,
      "count": 3206
    },
    {
      "bufferView": 2,
      "componentType": 5125,
      "type": "SCALAR",
      "count": 14868
    },
    {
      "bufferView": 3,
      "componentType": 5126,
      "type": "VEC3",
      "count": 2290,
      "min": [-25, -14, 0],
      "max": [20, 24, 1]
    },
    {
      "bufferView": 3,
      "componentType": 5126,
      "type": "VEC3",
      "byteOffset": 12,
      "count": 2290
    },
    {
      "bufferView": 3,
      "componentType": 5126,
      "type": "VEC2",
      "byteOffset": 24,
      "count": 2290
    },
    {
      "bufferView": 4,
      "componentType": 5125,
      "type": "SCALAR",
      "count": 5844
    },
    {
      "bufferView": 5,
      "componentType": 5126,
      "type": "VEC3",
      "count": 2854,
      "min": [-25, -25, 0],
      "max": [24, 24, 2]
    },
    {
      "bufferView": 5,
      "componentType": 5126,
      "type": "VEC3",
      "byteOffset": 12,
      "count": 2854
    },
    {
      "bufferView": 5,
      "componentType": 5126,
      "type": "VEC2",
      "byteOffset": 24,
      "count": 2854
    },
    {
      "bufferView": 6,
      "componentType": 5125,
      "type": "SCALAR",
      "count": 13128
    },
    {
      "bufferView": 7,
      "componentType": 5126,
      "type": "VEC3",
      "count": 1024,
      "min": [-6, 2, 0],
      "max": [8, 24, 1]
    },
    {
      "bufferView": 7,
      "componentType": 5126,
      "type": "VEC3",
      "byteOffset": 12,
      "count": 1024
    },
    {
      "bufferView": 7,
      "componentType": 5126,
      "type": "VEC2",
      "byteOffset": 24,
      "count": 1024
    },
    {
      "bufferView": 8,
      "componentType": 5125,
      "type": "SCALAR",
      "count": 4188
    }
  ],
  "asset": {
    "generator": "goxel",
    "version": "2.0"
  },
  "bufferViews": [
    {
      "buffer": 0,
      "byteLength": 200
    },
    {
      "buffer": 1,
      "byteLength": 128240,
      "byteStride": 40
    },
    {
      "buffer": 2,
      "byteLength": 59472
    },
    {
      "buffer": 3,
      "byteLength": 91600,
      "byteStride": 40
    },
    {
      "buffer": 4,
      "byteLength": 23376
    },
    {
      "buffer": 5,
      "byteLength": 114160,
      "byteStride": 40
    },
    {
      "buffer": 6,
      "byteLength": 52512
    },
    {
      "buffer": 7,
      "byteLength": 40960,
      "byteStride": 40
    },
    {
      "buffer": 8,
      "byteLength": 16752
    }
  ],
  "buffers": [
    {
      "uri": "data:application/octet-stream;base64,",
      "byteLength": 200
    },
    {
      "uri": "data:application/octet-stream;base64,",
      "byteLength": 128240
    },
    {
      "uri": "data:application/octet-stream;base64,",
      "byteLength": 59472
    },
    {
      "uri": "data:application/octet-stream;base64,",
      "byteLength": 91600
    },
    {
      "uri": "data:application/octet-stream;base64,",
      "byteLength": 23376
    },
    {
      "uri": "data:application/octet-stream;base64,",
      "byteLength": 114160
    },
    {
      "uri": "data:application/octet-stream;base64,",
      "byteLength": 52512
    },
    {
      "uri": "data:application/octet-stream;base64,",
      "byteLength": 40960
    },
    {
      "uri": "data:application/octet-stream;base64,",
      "byteLength": 16752
    }
  ],
  "images": [
    {
      "bufferView": 0,
      "mimeType": "image/png"
    }
  ],
  "meshes": [
    {
      "primitives": [
        {
          "indices": 3,
          "material": 0,
          "attributes": {
            "POSITION": 0,
            "NORMAL": 1,
            "TEXCOORD_0": 2
          }
        }
      ]
    },
    {
      "primitives": [
        {
          "indices": 7,
          "material": 1,
          "attributes": {
            "POSITION": 4,
            "NORMAL": 5,
            "TEXCOORD_0": 6
          }
        }
      ]
    },
    {
      "primitives": [
        {
          "indices": 11,
          "material": 2,
          "attributes": {
            "POSITION": 8,
            "NORMAL": 9,
            "TEXCOORD_0": 10
          }
        }
      ]
    },
    {
      "primitives": [
        {
          "indices": 15,
          "material": 3,
          "attributes": {
            "POSITION": 12,
            "NORMAL": 13,
            "TEXCOORD_0": 14
          }
        }
      ]
    }
  ],
  "materials": [
    {
      "name": "Alcatrao",
      "pbrMetallicRoughness": {
        "baseColorTexture": {
          "index": 0
        },
        "metallicFactor": 0.100000001,
        "roughnessFactor": 0.5,
        "baseColorFactor": [0, 0, 0, 1]
      }
    },
    {
      "name": "tinta",
      "pbrMetallicRoughness": {
        "baseColorTexture": {
          "index": 0
        },
        "metallicFactor": 0.200000003,
        "roughnessFactor": 0
      }
    },
    {
      "name": "pedra",
      "pbrMetallicRoughness": {
        "baseColorTexture": {
          "index": 0
        },
        "metallicFactor": 0.200000003,
        "roughnessFactor": 0.5,
        "baseColorFactor": [0.401977807, 0.396755248, 0.396755248, 1]
      }
    },
    {
      "name": "estacionamento",
      "pbrMetallicRoughness": {
        "baseColorTexture": {
          "index": 0
        },
        "metallicFactor": 0,
        "baseColorFactor": [0.266355634, 0.194617853, 0.194617853, 1]
      }
    }
  ],
  "nodes": [
    {
      "children": [ 1, 2, 3, 4 ],
      "matrix": [1, 0, 0, 0, 0, 0, -1, 0, 0, 1, 0, 0, 0, 0, 0, 1]
    },
    {
      "mesh": 0,
      "name": "tar"
    },
    {
      "mesh": 1,
      "name": "ink"
    },
    {
      "mesh": 2,
      "name": "stone"
    },
    {
      "mesh": 3,
      "name": "park"
    }
  ],
  "scenes": [
    {
      "nodes": [ 0 ]
    }
  ],
  "textures": [
    {
      "source": 0
    }
  ]
}
