{
	"asset":{
		"generator":"Khronos glTF Blender I/O v4.3.47",
		"version":"2.0"
	},
	"scene":0,
	"scenes":[
		{
			"name":"Scene",
			"nodes":[
				4
			]
		}
	],
	"nodes":[
		{
			"mesh":0,
			"name":"ink"
		},
		{
			"mesh":1,
			"name":"park"
		},
		{
			"mesh":2,
			"name":"stone"
		},
		{
			"mesh":3,
			"name":"tar"
		},
		{
			"children":[
				0,
				1,
				2,
				3
			],
			"name":"Node_0",
			"rotation":[
				-0.70710688829422,
				0,
				0,
				0.7071066498756409
			]
		}
	],
	"materials":[
		{
			"name":"tinta.012",
			"pbrMetallicRoughness":{
				"baseColorTexture":{
					"index":0
				},
				"metallicFactor":0.20000000298023224,
				"roughnessFactor":0
			}
		},
		{
			"name":"estacionamento",
			"pbrMetallicRoughness":{
				"baseColorFactor":[
					0.26635563373565674,
					0.1946178525686264,
					0.1946178525686264,
					1
				],
				"baseColorTexture":{
					"index":1
				},
				"metallicFactor":0
			}
		},
		{
			"name":"pedra.012",
			"pbrMetallicRoughness":{
				"baseColorFactor":[
					0.4019778072834015,
					0.39675524830818176,
					0.39675524830818176,
					1
				],
				"baseColorTexture":{
					"index":2
				},
				"metallicFactor":0.20000000298023224,
				"roughnessFactor":0.5
			}
		},
		{
			"name":"Alcatrao.012",
			"pbrMetallicRoughness":{
				"baseColorFactor":[
					0,
					0,
					0,
					1
				],
				"baseColorTexture":{
					"index":3
				},
				"metallicFactor":0.10000000149011612,
				"roughnessFactor":0.5
			}
		}
	],
	"meshes":[
		{
			"name":"Mesh_1.012",
			"primitives":[
				{
					"attributes":{
						"POSITION":0,
						"NORMAL":1,
						"TEXCOORD_0":2
					},
					"indices":3,
					"material":0
				}
			]
		},
		{
			"name":"Mesh_3",
			"primitives":[
				{
					"attributes":{
						"POSITION":4,
						"NORMAL":5,
						"TEXCOORD_0":6
					},
					"indices":7,
					"material":1
				}
			]
		},
		{
			"name":"Mesh_2.012",
			"primitives":[
				{
					"attributes":{
						"POSITION":8,
						"NORMAL":9,
						"TEXCOORD_0":10
					},
					"indices":11,
					"material":2
				}
			]
		},
		{
			"name":"Mesh_0.012",
			"primitives":[
				{
					"attributes":{
						"POSITION":12,
						"NORMAL":13,
						"TEXCOORD_0":14
					},
					"indices":15,
					"material":3
				}
			]
		}
	],
	"textures":[
		{
			"sampler":0,
			"source":0
		},
		{
			"sampler":0,
			"source":0
		},
		{
			"sampler":0,
			"source":0
		},
		{
			"sampler":0,
			"source":0
		}
	],
	"images":[
		{
			"mimeType":"image/png",
			"name":"Image_0",
			"uri":"Image_0.png"
		}
	],
	"accessors":[
		{
			"bufferView":0,
			"componentType":5126,
			"count":2290,
			"max":[
				20,
				24,
				1
			],
			"min":[
				-25,
				-14,
				0
			],
			"type":"VEC3"
		},
		{
			"bufferView":1,
			"componentType":5126,
			"count":2290,
			"type":"VEC3"
		},
		{
			"bufferView":2,
			"componentType":5126,
			"count":2290,
			"type":"VEC2"
		},
		{
			"bufferView":3,
			"componentType":5123,
			"count":5844,
			"type":"SCALAR"
		},
		{
			"bufferView":4,
			"componentType":5126,
			"count":498,
			"max":[
				8,
				24,
				1
			],
			"min":[
				-6,
				2,
				0
			],
			"type":"VEC3"
		},
		{
			"bufferView":5,
			"componentType":5126,
			"count":498,
			"type":"VEC3"
		},
		{
			"bufferView":6,
			"componentType":5126,
			"count":498,
			"type":"VEC2"
		},
		{
			"bufferView":7,
			"componentType":5123,
			"count":1134,
			"type":"SCALAR"
		},
		{
			"bufferView":8,
			"componentType":5126,
			"count":1456,
			"max":[
				24,
				24,
				2
			],
			"min":[
				-25,
				-25,
				0
			],
			"type":"VEC3"
		},
		{
			"bufferView":9,
			"componentType":5126,
			"count":1456,
			"type":"VEC3"
		},
		{
			"bufferView":10,
			"componentType":5126,
			"count":1456,
			"type":"VEC2"
		},
		{
			"bufferView":11,
			"componentType":5123,
			"count":4740,
			"type":"SCALAR"
		},
		{
			"bufferView":12,
			"componentType":5126,
			"count":1390,
			"max":[
				19,
				24,
				1
			],
			"min":[
				-25,
				-13,
				0
			],
			"type":"VEC3"
		},
		{
			"bufferView":13,
			"componentType":5126,
			"count":1390,
			"type":"VEC3"
		},
		{
			"bufferView":14,
			"componentType":5126,
			"count":1390,
			"type":"VEC2"
		},
		{
			"bufferView":15,
			"componentType":5123,
			"count":3972,
			"type":"SCALAR"
		}
	],
	"bufferViews":[
		{
			"buffer":0,
			"byteLength":27480,
			"byteOffset":0,
			"target":34962
		},
		{
			"buffer":0,
			"byteLength":27480,
			"byteOffset":27480,
			"target":34962
		},
		{
			"buffer":0,
			"byteLength":18320,
			"byteOffset":54960,
			"target":34962
		},
		{
			"buffer":0,
			"byteLength":11688,
			"byteOffset":73280,
			"target":34963
		},
		{
			"buffer":0,
			"byteLength":5976,
			"byteOffset":84968,
			"target":34962
		},
		{
			"buffer":0,
			"byteLength":5976,
			"byteOffset":90944,
			"target":34962
		},
		{
			"buffer":0,
			"byteLength":3984,
			"byteOffset":96920,
			"target":34962
		},
		{
			"buffer":0,
			"byteLength":2268,
			"byteOffset":100904,
			"target":34963
		},
		{
			"buffer":0,
			"byteLength":17472,
			"byteOffset":103172,
			"target":34962
		},
		{
			"buffer":0,
			"byteLength":17472,
			"byteOffset":120644,
			"target":34962
		},
		{
			"buffer":0,
			"byteLength":11648,
			"byteOffset":138116,
			"target":34962
		},
		{
			"buffer":0,
			"byteLength":9480,
			"byteOffset":149764,
			"target":34963
		},
		{
			"buffer":0,
			"byteLength":16680,
			"byteOffset":159244,
			"target":34962
		},
		{
			"buffer":0,
			"byteLength":16680,
			"byteOffset":175924,
			"target":34962
		},
		{
			"buffer":0,
			"byteLength":11120,
			"byteOffset":192604,
			"target":34962
		},
		{
			"buffer":0,
			"byteLength":7944,
			"byteOffset":203724,
			"target":34963
		}
	],
	"samplers":[
		{
			"magFilter":9729,
			"minFilter":9987
		}
	],
	"buffers":[
		{
			"byteLength":211668,
			"uri":"park1_49.bin"
		}
	]
}
